logo-broken-stroke.ufo
<glyph name="exclam" format="1">
  <advance width="150"/>
  <unicode hex="0021"/>
  <outline>
    <contour>
      <point x="75" y="1" type="move" smooth="yes"/>
    </contour>
    <contour>
      <point x="75" y="802" type="move"/>
      <point x="75" y="253" type="line"/>
    </contour>
  </outline>
</glyph>
<glyph name="quotedbl" format="1">
  <advance width="240"/>
  <unicode hex="0022"/>
  <outline>
    <contour>
      <point x="75" y="600" type="move"/>
      <point x="75" y="507" type="line"/>
    </contour>
    <contour>
      <point x="165" y="600" type="move"/>
      <point x="165" y="507" type="line"/>
    </contour>
  </outline>
</glyph>
<glyph name="numbersign" format="1">
  <advance width="440"/>
  <unicode hex="0023"/>
  <outline>
    <contour>
      <point x="405" y="346" type="line"/>
      <point x="77" y="346" type="line"/>
    </contour>
    <contour>
      <point x="369" y="598" type="move"/>
      <point x="237" y="0" type="line"/>
    </contour>
    <contour>
      <point x="223" y="598" type="move"/>
      <point x="91" y="0" type="line"/>
    </contour>
    <contour>
      <point x="363" y="160" type="line"/>
      <point x="35" y="160" type="line"/>
    </contour>
  </outline>
</glyph>
<glyph name="dollar" format="1">
  <advance width="486"/>
  <unicode hex="0024"/>
  <outline>
    <contour>
      <point x="249" y="0" type="move"/>
      <point x="249" y="-91" type="line"/>
    </contour>
    <contour>
      <point x="248" y="690" type="move"/>
      <point x="248" y="597" type="line"/>
    </contour>
    <contour>
      <point x="369" y="298" type="move" smooth="yes"/>
    </contour>
    <contour>
      <point x="416" y="470" type="move"/>
      <point x="369" y="550" type="line"/>
      <point x="289" y="597" type="line"/>
      <point x="197" y="597" type="line"/>
      <point x="116" y="550" type="line"/>
      <point x="70" y="470" type="line"/>
      <point x="70" y="378" type="line"/>
      <point x="116" y="300" type="line"/>
      <point x="197" y="346" type="line"/>
      <point x="289" y="346" type="line"/>
      <point x="369" y="300" type="line"/>
      <point x="415" y="219" type="line"/>
      <point x="415" y="127" type="line"/>
      <point x="369" y="47" type="line"/>
      <point x="289" y="1" type="line"/>
      <point x="197" y="1" type="line"/>
      <point x="116" y="47" type="line"/>
      <point x="70" y="127" type="line"/>
    </contour>
  </outline>
</glyph>
<glyph name="percent" format="1">
  <advance width="534"/>
  <unicode hex="0025"/>
  <outline>
    <contour>
      <point x="75" y="0" type="move"/>
      <point x="459" y="600" type="line"/>
    </contour>
  </outline>
</glyph>
<glyph name="ampersand" format="1">
  <advance width="490"/>
  <unicode hex="0026"/>
  <outline>
    <contour>
      <point x="319" y="454" type="move"/>
      <point x="319" y="2" type="line"/>
      <point x="180" y="2" type="line"/>
      <point x="111" y="42" type="line"/>
      <point x="70" y="112" type="line"/>
      <point x="70" y="192" type="line"/>
      <point x="111" y="262" type="line"/>
      <point x="180" y="302" type="line"/>
      <point x="455" y="302" type="line"/>
      <point x="180" y="302" type="line"/>
      <point x="111" y="342" type="line"/>
      <point x="70" y="411" type="line"/>
      <point x="70" y="492" type="line"/>
      <point x="111" y="561" type="line"/>
      <point x="180" y="601" type="line"/>
      <point x="277" y="601" type="line"/>
    </contour>
  </outline>
</glyph>
<glyph name="quotesingle" format="1">
  <advance width="150"/>
  <unicode hex="0027"/>
  <outline>
    <contour>
      <point x="75" y="600" type="move"/>
      <point x="75" y="507" type="line"/>
    </contour>
  </outline>
</glyph>
<glyph name="parenright" format="1">
  <advance width="271"/>
  <unicode hex="0029"/>
  <outline>
    <contour>
      <point x="70" y="728" type="move"/>
      <point x="150" y="682" type="line"/>
      <point x="196" y="601" type="line"/>
      <point x="196" y="-130" type="line"/>
      <point x="150" y="-210" type="line"/>
      <point x="70" y="-257" type="line"/>
    </contour>
  </outline>
</glyph>
<glyph name="asterisk" format="1">
  <advance width="300"/>
  <unicode hex="002A"/>
  <outline>
    <contour>
      <point x="150" y="472" type="move"/>
      <point x="150" y="564" type="line"/>
    </contour>
    <contour>
      <point x="196" y="391" type="move"/>
      <point x="150" y="472" type="line"/>
      <point x="70" y="518" type="line"/>
    </contour>
    <contour>
      <point x="103" y="391" type="move"/>
      <point x="149" y="471" type="line"/>
      <point x="230" y="518" type="line"/>
    </contour>
  </outline>
</glyph>
<glyph name="plus" format="1">
  <advance width="438"/>
  <unicode hex="002B"/>
  <outline>
    <contour>
      <point x="368" y="179" type="line"/>
      <point x="70" y="179" type="line"/>
    </contour>
    <contour>
      <point x="218" y="0" type="line"/>
      <point x="218" y="346" type="line"/>
    </contour>
  </outline>
</glyph>
<glyph name="hyphen" format="1">
  <advance width="333"/>
  <unicode hex="002D"/>
  <outline>
    <contour>
      <point x="263" y="158" type="move"/>
      <point x="70" y="158" type="line"/>
    </contour>
  </outline>
</glyph>
<glyph name="period" format="1">
  <advance width="140"/>
  <unicode hex="002E"/>
  <outline>
    <contour>
      <point x="71" y="1" type="move" smooth="yes"/>
    </contour>
  </outline>
</glyph>
<glyph name="slash" format="1">
  <advance width="524"/>
  <unicode hex="002F"/>
  <outline>
    <contour>
      <point x="454" y="600" type="move"/>
      <point x="70" y="0" type="line"/>
    </contour>
  </outline>
</glyph>
<glyph name="one" format="1">
  <advance width="249"/>
  <unicode hex="0031"/>
  <outline>
    <contour>
      <point x="35" y="266" type="move"/>
      <point x="174" y="346" type="line"/>
      <point x="174" y="0" type="line"/>
    </contour>
  </outline>
</glyph>
<glyph name="two" format="1">
  <advance width="485"/>
  <unicode hex="0032"/>
  <outline>
    <contour>
      <point x="415" y="0" type="move"/>
      <point x="70" y="0" type="line"/>
      <point x="415" y="218" type="line"/>
      <point x="369" y="299" type="line"/>
      <point x="289" y="345" type="line"/>
      <point x="197" y="345" type="line"/>
      <point x="116" y="299" type="line"/>
      <point x="70" y="218" type="line"/>
    </contour>
  </outline>
</glyph>
<glyph name="three" format="1">
  <advance width="430"/>
  <unicode hex="0033"/>
  <outline>
    <contour>
      <point x="35" y="346" type="move"/>
      <point x="302" y="346" type="line"/>
      <point x="141" y="88" type="line"/>
      <point x="233" y="88" type="line"/>
      <point x="314" y="42" type="line"/>
      <point x="360" y="-37" type="line"/>
      <point x="360" y="-130" type="line"/>
      <point x="314" y="-210" type="line"/>
      <point x="233" y="-256" type="line"/>
    </contour>
    <contour>
      <point x="61" y="-210" type="move"/>
      <point x="141" y="-256" type="line"/>
      <point x="233" y="-256" type="line"/>
    </contour>
  </outline>
</glyph>
<glyph name="five" format="1">
  <advance width="445"/>
  <unicode hex="0035"/>
  <outline>
    <contour>
      <point x="342" y="346" type="move"/>
      <point x="75" y="346" type="line"/>
      <point x="75" y="44" type="line"/>
      <point x="75" y="44" type="line"/>
      <point x="156" y="90" type="line"/>
      <point x="248" y="90" type="line"/>
      <point x="328" y="44" type="line"/>
      <point x="375" y="-36" type="line"/>
      <point x="375" y="-128" type="line"/>
      <point x="328" y="-208" type="line"/>
      <point x="248" y="-255" type="line"/>
    </contour>
    <contour>
      <point x="75" y="-208" type="move"/>
      <point x="156" y="-255" type="line"/>
      <point x="248" y="-255" type="line"/>
    </contour>
  </outline>
</glyph>
<glyph name="six" format="1">
  <advance width="485"/>
  <unicode hex="0036"/>
  <outline>
    <contour>
      <point x="313" y="600" type="move" smooth="yes"/>
    </contour>
    <contour>
      <point x="313" y="600" type="move"/>
      <point x="70" y="219" type="line"/>
      <point x="70" y="127" type="line"/>
      <point x="116" y="47" type="line"/>
      <point x="196" y="1" type="line"/>
      <point x="288" y="1" type="line"/>
      <point x="369" y="47" type="line"/>
      <point x="415" y="127" type="line"/>
      <point x="415" y="219" type="line"/>
      <point x="369" y="300" type="line"/>
      <point x="288" y="346" type="line"/>
      <point x="196" y="346" type="line"/>
      <point x="119" y="297" type="line"/>
    </contour>
  </outline>
</glyph>
<glyph name="seven" format="1">
  <advance width="489"/>
  <unicode hex="0037"/>
  <outline>
    <contour>
      <point x="70" y="345" type="move"/>
      <point x="454" y="345" type="line"/>
      <point x="70" y="-254" type="line"/>
    </contour>
  </outline>
</glyph>
<glyph name="eight" format="1">
  <advance width="486"/>
  <unicode hex="0038"/>
  <outline>
    <contour>
      <point x="369" y="43" type="move"/>
      <point x="416" y="126" type="line"/>
      <point x="416" y="218" type="line"/>
      <point x="370" y="299" type="line"/>
      <point x="289" y="345" type="line"/>
      <point x="197" y="345" type="line"/>
      <point x="117" y="299" type="line"/>
      <point x="71" y="218" type="line"/>
      <point x="71" y="126" type="line"/>
      <point x="116" y="43" type="line"/>
      <point x="70" y="-37" type="line"/>
      <point x="70" y="-129" type="line"/>
      <point x="116" y="-209" type="line"/>
      <point x="196" y="-256" type="line"/>
      <point x="289" y="-256" type="line"/>
    </contour>
    <contour>
      <point x="289" y="-256" type="move"/>
      <point x="369" y="-209" type="line"/>
      <point x="415" y="-129" type="line"/>
      <point x="415" y="-37" type="line"/>
      <point x="369" y="43" type="line"/>
      <point x="116" y="43" type="line"/>
    </contour>
  </outline>
</glyph>
<glyph name="nine" format="1">
  <advance width="486"/>
  <unicode hex="0039"/>
  <outline>
    <contour>
      <point x="173" y="-253" type="move" smooth="yes"/>
    </contour>
    <contour>
      <point x="173" y="-253" type="move"/>
      <point x="416" y="126" type="line"/>
      <point x="416" y="218" type="line"/>
      <point x="369" y="299" type="line"/>
      <point x="289" y="345" type="line"/>
      <point x="197" y="345" type="line"/>
      <point x="117" y="299" type="line"/>
      <point x="70" y="218" type="line"/>
      <point x="70" y="126" type="line"/>
      <point x="117" y="46" type="line"/>
      <point x="197" y="0" type="line"/>
      <point x="289" y="0" type="line"/>
      <point x="366" y="48" type="line"/>
    </contour>
  </outline>
</glyph>
<glyph name="colon" format="1">
  <advance width="150"/>
  <unicode hex="003A"/>
  <outline>
    <contour>
      <point x="75" y="0" type="move" smooth="yes"/>
    </contour>
    <contour>
      <point x="75" y="347" type="move" smooth="yes"/>
    </contour>
  </outline>
</glyph>
<glyph name="equal" format="1">
  <advance width="438"/>
  <unicode hex="003D"/>
  <outline>
    <contour>
      <point x="368" y="249" type="line"/>
      <point x="70" y="249" type="line"/>
    </contour>
    <contour>
      <point x="368" y="69" type="line"/>
      <point x="70" y="69" type="line"/>
    </contour>
  </outline>
</glyph>
<glyph name="question" format="1">
  <advance width="440"/>
  <unicode hex="003F"/>
  <outline>
    <contour>
      <point x="151" y="-1" type="move" smooth="yes"/>
    </contour>
    <contour>
      <point x="151" y="167" type="move"/>
      <point x="151" y="255" type="line"/>
      <point x="243" y="255" type="line"/>
      <point x="323" y="301" type="line"/>
      <point x="370" y="381" type="line"/>
      <point x="370" y="473" type="line"/>
      <point x="323" y="554" type="line"/>
      <point x="243" y="600" type="line"/>
      <point x="151" y="600" type="line"/>
      <point x="70" y="554" type="line"/>
    </contour>
  </outline>
</glyph>
<glyph name="at" format="1">
  <advance width="693"/>
  <unicode hex="0040"/>
  <outline>
    <contour>
      <point x="478" y="0" type="move"/>
      <point x="201" y="0" type="line"/>
      <point x="121" y="46" type="line"/>
      <point x="70" y="126" type="line"/>
      <point x="70" y="475" type="line"/>
      <point x="120" y="556" type="line"/>
      <point x="200" y="602" type="line"/>
      <point x="493" y="602" type="line"/>
      <point x="573" y="555" type="line"/>
      <point x="623" y="469" type="line"/>
      <point x="623" y="177" type="line"/>
      <point x="571" y="97" type="line"/>
      <point x="477" y="97" type="line"/>
      <point x="477" y="469" type="line"/>
    </contour>
    <contour>
      <point x="477" y="171" type="move"/>
      <point x="397" y="125" type="line"/>
      <point x="304" y="125" type="line"/>
      <point x="224" y="171" type="line"/>
      <point x="178" y="251" type="line"/>
      <point x="178" y="343" type="line"/>
      <point x="224" y="424" type="line"/>
      <point x="304" y="470" type="line"/>
      <point x="397" y="470" type="line"/>
      <point x="477" y="424" type="line"/>
    </contour>
  </outline>
</glyph>
<glyph name="A" format="1">
  <advance width="552"/>
  <unicode hex="0041"/>
  <outline>
    <contour>
      <point x="429" y="271" type="move"/>
      <point x="124" y="271" type="line"/>
    </contour>
    <contour>
      <point x="25" y="0" type="move"/>
      <point x="276" y="692" type="line"/>
      <point x="527" y="0" type="line"/>
    </contour>
  </outline>
</glyph>
<glyph name="B" format="1">
  <advance width="562"/>
  <unicode hex="0042"/>
  <outline>
    <contour>
      <point x="870" y="692"/>
      <point x="870" y="0"/>
      <point x="870" y="0" type="curve"/>
      <point x="1145" y="0" type="line"/>
      <point x="1226" y="47" type="line"/>
      <point x="1272" y="128" type="line"/>
      <point x="1272" y="218" type="line"/>
      <point x="1226" y="299" type="line"/>
      <point x="1145" y="346" type="line"/>
      <point x="1226" y="395" type="line"/>
      <point x="1272" y="473" type="line"/>
      <point x="1272" y="566" type="line"/>
      <point x="1226" y="645" type="line"/>
      <point x="1145" y="692" type="line"/>
      <point x="870" y="692" type="line"/>
    </contour>
    <contour>
      <point x="90" y="346" type="move"/>
      <point x="365" y="346" type="line"/>
      <point x="446.0" y="395.0" type="line"/>
      <point x="492.0" y="473.0" type="line"/>
      <point x="492.0" y="566.0" type="line"/>
      <point x="446.0" y="645.0" type="line"/>
      <point x="365.0" y="692.0" type="line"/>
      <point x="90.0" y="692.0" type="line"/>
      <point x="90.0" y="692.0"/>
      <point x="90.0" y="0.0"/>
      <point x="90.0" y="0.0" type="curve"/>
      <point x="365.0" y="0.0" type="line"/>
      <point x="446.0" y="47.0" type="line"/>
      <point x="492.0" y="128.0" type="line"/>
      <point x="492.0" y="218.0" type="line"/>
      <point x="446.0" y="299.0" type="line"/>
      <point x="365.0" y="346.0" type="line"/>
    </contour>
  </outline>
</glyph>
<glyph name="C" format="1">
  <advance width="738"/>
  <unicode hex="0043"/>
  <outline>
    <contour>
      <point x="668" y="94" type="move"/>
    </contour>
    <contour>
      <point x="668" y="94" type="move"/>
      <point x="507" y="0" type="line"/>
      <point x="325" y="0" type="line"/>
      <point x="164" y="94" type="line"/>
      <point x="70" y="255" type="line"/>
      <point x="70" y="437" type="line"/>
      <point x="164" y="598" type="line"/>
      <point x="325" y="692" type="line"/>
      <point x="507" y="692" type="line"/>
      <point x="668" y="598" type="line"/>
    </contour>
  </outline>
</glyph>
<glyph name="D" format="1">
  <advance width="667"/>
  <unicode hex="0044"/>
  <outline>
    <contour>
      <point x="90" y="0"/>
      <point x="90" y="692"/>
      <point x="90" y="692" type="curve"/>
      <point x="345" y="692" type="line"/>
      <point x="506" y="598" type="line"/>
      <point x="600" y="437" type="line"/>
      <point x="600" y="255" type="line"/>
      <point x="506" y="94" type="line"/>
      <point x="345" y="0" type="line"/>
      <point x="90" y="0" type="line"/>
    </contour>
  </outline>
</glyph>
<glyph name="F" format="1">
  <advance width="555"/>
  <unicode hex="0046"/>
  <outline>
    <contour>
      <point x="90" y="346" type="move"/>
      <point x="415" y="346" type="line"/>
    </contour>
    <contour>
      <point x="485" y="692" type="move"/>
      <point x="90" y="692" type="line"/>
      <point x="90" y="0" type="line"/>
    </contour>
  </outline>
</glyph>
<glyph name="G" format="1">
  <advance width="738"/>
  <unicode hex="0047"/>
  <outline>
    <contour>
      <point x="413" y="255" type="move"/>
      <point x="413" y="255"/>
      <point x="668" y="255"/>
      <point x="668" y="255" type="curve"/>
      <point x="668" y="94" type="line"/>
      <point x="507" y="0" type="line"/>
      <point x="325" y="0" type="line"/>
      <point x="164" y="94" type="line"/>
      <point x="70" y="255" type="line"/>
      <point x="70" y="437" type="line"/>
      <point x="164" y="598" type="line"/>
      <point x="325" y="692" type="line"/>
      <point x="507" y="692" type="line"/>
      <point x="668" y="598" type="line"/>
    </contour>
  </outline>
</glyph>
<glyph name="H" format="1">
  <advance width="624"/>
  <unicode hex="0048"/>
  <outline>
    <contour>
      <point x="90" y="0" type="move"/>
      <point x="90" y="692" type="line"/>
    </contour>
    <contour>
      <point x="90" y="346" type="move"/>
      <point x="534" y="346" type="line"/>
    </contour>
    <contour>
      <point x="534" y="692" type="move"/>
      <point x="534" y="0" type="line"/>
    </contour>
  </outline>
</glyph>
<glyph name="I" format="1">
  <advance width="180"/>
  <unicode hex="0049"/>
  <outline>
    <contour>
      <point x="90" y="0" type="move"/>
      <point x="90" y="692" type="line"/>
    </contour>
  </outline>
</glyph>
<glyph name="J" format="1">
  <advance width="506"/>
  <unicode hex="004A"/>
  <outline>
    <contour>
      <point x="216" y="692" type="move"/>
      <point x="216" y="692"/>
      <point x="416" y="692"/>
      <point x="416" y="692" type="curve"/>
      <point x="416" y="148" type="line"/>
      <point x="362" y="54" type="line"/>
      <point x="269" y="0" type="line"/>
      <point x="164" y="0" type="line"/>
      <point x="70" y="54" type="line"/>
    </contour>
  </outline>
</glyph>
<glyph name="K" format="1">
  <advance width="507"/>
  <unicode hex="004B"/>
  <outline>
    <contour>
      <point x="90" y="692" type="move"/>
      <point x="90" y="0" type="line"/>
    </contour>
    <contour>
      <point x="90" y="346" type="move"/>
      <point x="437" y="0" type="line"/>
    </contour>
    <contour>
      <point x="437" y="692" type="move"/>
      <point x="90" y="346" type="line"/>
    </contour>
  </outline>
</glyph>
<glyph name="M" format="1">
  <advance width="723"/>
  <unicode hex="004D"/>
  <outline>
    <contour>
      <point x="633" y="0" type="move"/>
      <point x="633" y="692" type="line"/>
      <point x="360" y="222" type="line"/>
      <point x="90" y="692" type="line"/>
      <point x="90" y="0" type="line"/>
    </contour>
  </outline>
</glyph>
<glyph name="N" format="1">
  <advance width="590"/>
  <unicode hex="004E"/>
  <outline>
    <contour>
      <point x="90" y="0" type="move"/>
      <point x="90" y="692" type="line"/>
      <point x="500" y="0" type="line"/>
      <point x="500" y="692" type="line"/>
    </contour>
  </outline>
</glyph>
<glyph name="O" format="1">
  <advance width="872"/>
  <unicode hex="004F"/>
  <outline>
    <contour>
      <point x="184" y="94" type="line"/>
      <point x="90" y="255" type="line"/>
      <point x="90" y="437" type="line"/>
      <point x="184" y="598" type="line"/>
      <point x="345" y="692" type="line"/>
      <point x="527" y="692" type="line"/>
      <point x="688" y="598" type="line"/>
      <point x="782" y="437" type="line"/>
      <point x="782" y="255" type="line"/>
      <point x="688" y="94" type="line"/>
      <point x="527" y="0" type="line"/>
      <point x="345" y="0" type="line"/>
    </contour>
  </outline>
</glyph>
<glyph name="P" format="1">
  <advance width="562"/>
  <unicode hex="0050"/>
  <outline>
    <contour>
      <point x="90" y="346" type="move"/>
      <point x="365" y="346" type="line"/>
      <point x="446" y="395" type="line"/>
      <point x="492" y="473" type="line"/>
      <point x="492" y="566" type="line"/>
      <point x="446" y="645" type="line"/>
      <point x="365" y="692" type="line"/>
      <point x="90" y="692" type="line"/>
      <point x="90" y="692"/>
      <point x="90" y="0"/>
      <point x="90" y="0" type="curve"/>
    </contour>
  </outline>
</glyph>
<glyph name="Q" format="1">
  <advance width="885"/>
  <unicode hex="0051"/>
  <outline>
    <contour>
      <point x="794" y="-254" type="move"/>
      <point x="633" y="-160" type="line"/>
      <point x="539" y="1" type="line"/>
    </contour>
    <contour>
      <point x="197" y="94" type="line"/>
      <point x="103" y="255" type="line"/>
      <point x="103" y="437" type="line"/>
      <point x="197" y="598" type="line"/>
      <point x="358" y="692" type="line"/>
      <point x="540" y="692" type="line"/>
      <point x="701" y="598" type="line"/>
      <point x="795" y="437" type="line"/>
      <point x="795" y="255" type="line"/>
      <point x="701" y="94" type="line"/>
      <point x="540" y="0" type="line"/>
      <point x="358" y="0" type="line"/>
    </contour>
  </outline>
</glyph>
<glyph name="R" format="1">
  <advance width="562"/>
  <unicode hex="0052"/>
  <outline>
    <contour>
      <point x="457" y="0" type="move"/>
      <point x="256" y="346" type="line"/>
    </contour>
    <contour>
      <point x="90" y="346" type="move"/>
      <point x="365" y="346" type="line"/>
      <point x="446" y="395" type="line"/>
      <point x="492" y="473" type="line"/>
      <point x="492" y="566" type="line"/>
      <point x="446" y="645" type="line"/>
      <point x="365" y="692" type="line"/>
      <point x="90" y="692" type="line"/>
      <point x="90" y="692"/>
      <point x="90" y="0"/>
      <point x="90" y="0" type="curve"/>
    </contour>
  </outline>
</glyph>
<glyph name="S" format="1">
  <advance width="485"/>
  <unicode hex="0053"/>
  <outline>
    <contour>
      <point x="415" y="345" type="move"/>
      <point x="323" y="290" type="line"/>
      <point x="217" y="290" type="line"/>
      <point x="125" y="345" type="line"/>
      <point x="70" y="437" type="line"/>
      <point x="70" y="543" type="line"/>
      <point x="125" y="635" type="line"/>
      <point x="217" y="690" type="line"/>
      <point x="323" y="690" type="line"/>
      <point x="415" y="635" type="line"/>
    </contour>
    <contour>
      <point x="100" y="396" type="move"/>
      <point x="188" y="450" type="line"/>
      <point x="294" y="450" type="line"/>
      <point x="386" y="395" type="line"/>
      <point x="441" y="303" type="line"/>
      <point x="441" y="197" type="line"/>
      <point x="386" y="105" type="line"/>
      <point x="294" y="50" type="line"/>
      <point x="188" y="50" type="line"/>
      <point x="96" y="105" type="line"/>
    </contour>
  </outline>
</glyph>
<glyph name="T" format="1">
  <advance width="513"/>
  <unicode hex="0054"/>
  <outline>
    <contour>
      <point x="35" y="692" type="move"/>
      <point x="478" y="692" type="line"/>
    </contour>
    <contour>
      <point x="256" y="0" type="move"/>
      <point x="256" y="692" type="line"/>
    </contour>
  </outline>
</glyph>
<glyph name="U" format="1">
  <advance width="583"/>
  <unicode hex="0055"/>
  <outline>
    <contour>
      <point x="470" y="692" type="move"/>
      <point x="470" y="147" type="line"/>
      <point x="415" y="55" type="line"/>
      <point x="323" y="0" type="line"/>
      <point x="217" y="0" type="line"/>
      <point x="125" y="55" type="line"/>
      <point x="70" y="147" type="line"/>
      <point x="70" y="692" type="line"/>
    </contour>
  </outline>
</glyph>
<glyph name="V" format="1">
  <advance width="562"/>
  <unicode hex="0056"/>
  <outline>
    <contour>
      <point x="532" y="692" type="move"/>
      <point x="281" y="0" type="line"/>
      <point x="30" y="692" type="line"/>
    </contour>
  </outline>
</glyph>
<glyph name="W" format="1">
  <advance width="841"/>
  <unicode hex="0057"/>
  <outline>
    <contour>
      <point x="823" y="691" type="move"/>
      <point x="572" y="-1" type="line"/>
      <point x="321" y="691" type="line"/>
    </contour>
    <contour>
      <point x="532" y="692" type="move"/>
      <point x="281" y="0" type="line"/>
      <point x="30" y="692" type="line"/>
    </contour>
  </outline>
</glyph>
<glyph name="X" format="1">
  <advance width="591"/>
  <unicode hex="0058"/>
  <outline>
    <contour>
      <point x="500" y="692" type="move"/>
      <point x="90" y="0" type="line"/>
    </contour>
    <contour>
      <point x="90" y="692" type="move"/>
      <point x="500" y="0" type="line"/>
    </contour>
  </outline>
</glyph>
<glyph name="Y" format="1">
  <advance width="501"/>
  <unicode hex="0059"/>
  <outline>
    <contour>
      <point x="261" y="346" type="move"/>
      <point x="466" y="692" type="line"/>
    </contour>
    <contour>
      <point x="261" y="0" type="move"/>
      <point x="261" y="346" type="line"/>
      <point x="56" y="692" type="line"/>
    </contour>
  </outline>
</glyph>
<glyph name="Z" format="1">
  <advance width="525"/>
  <unicode hex="005A"/>
  <outline>
    <contour>
      <point x="90" y="692" type="move"/>
    </contour>
    <contour>
      <point x="500" y="0" type="move"/>
      <point x="90" y="0" type="line"/>
      <point x="500" y="692" type="line"/>
      <point x="90" y="692" type="line"/>
    </contour>
  </outline>
</glyph>
<glyph name="bracketleft" format="1">
  <advance width="219"/>
  <unicode hex="005B"/>
  <outline>
    <contour>
      <point x="183" y="731" type="move"/>
      <point x="75" y="731" type="line"/>
      <point x="76" y="-250" type="line"/>
      <point x="184" y="-250" type="line"/>
    </contour>
  </outline>
</glyph>
<glyph name="bracketright" format="1">
  <advance width="218"/>
  <unicode hex="005D"/>
  <outline>
    <contour>
      <point x="35" y="-250" type="move"/>
      <point x="143" y="-250" type="line"/>
      <point x="143" y="731" type="line"/>
      <point x="35" y="731" type="line"/>
    </contour>
  </outline>
</glyph>
<glyph name="underscore" format="1">
  <advance width="572"/>
  <unicode hex="005F"/>
  <outline>
    <contour>
      <point x="502" y="-77" type="move"/>
      <point x="70" y="-77" type="line"/>
    </contour>
  </outline>
</glyph>
<glyph name="a" format="1">
  <advance width="526"/>
  <unicode hex="0061"/>
  <outline>
    <contour>
      <point x="466" y="0" type="line"/>
      <point x="466" y="457" type="line"/>
    </contour>
    <contour>
      <point x="237" y="0" type="move"/>
      <point x="131" y="61" type="line"/>
      <point x="70" y="167" type="line"/>
      <point x="70" y="289" type="line"/>
      <point x="131" y="396" type="line"/>
      <point x="237" y="457" type="line"/>
      <point x="359" y="457" type="line"/>
      <point x="466" y="396" type="line"/>
    </contour>
    <contour>
      <point x="466" y="61" type="move"/>
      <point x="359" y="0" type="line"/>
    </contour>
  </outline>
</glyph>
<glyph name="b" format="1">
  <advance width="445"/>
  <unicode hex="0062"/>
  <outline>
    <contour>
      <point x="75" y="609" type="line"/>
      <point x="75" y="1" type="line"/>
    </contour>
    <contour>
      <point x="75" y="299" type="move"/>
      <point x="156" y="345" type="line"/>
      <point x="248" y="345" type="line"/>
      <point x="328" y="299" type="line"/>
      <point x="375" y="218" type="line"/>
      <point x="375" y="126" type="line"/>
      <point x="328" y="46" type="line"/>
      <point x="248" y="0" type="line"/>
      <point x="156" y="0" type="line"/>
      <point x="75" y="46" type="line"/>
    </contour>
  </outline>
</glyph>
<glyph name="c" format="1">
  <advance width="445"/>
  <unicode hex="0063"/>
  <outline>
    <contour>
      <point x="226" y="58" type="move"/>
      <point x="120" y="0" type="line"/>
      <point x="0" y="0" type="line"/>
      <point x="-102" y="58" type="line"/>
      <point x="-163" y="158" type="line"/>
      <point x="-163" y="273" type="line"/>
      <point x="-102" y="376" type="line"/>
      <point x="0" y="434" type="line"/>
      <point x="120" y="434" type="line"/>
      <point x="226" y="376" type="line"/>
    </contour>
  </outline>
</glyph>
<glyph name="d" format="1">
  <advance width="445"/>
  <unicode hex="0064"/>
  <outline>
    <contour>
      <point x="370" y="601" type="line"/>
      <point x="370" y="0" type="line"/>
    </contour>
    <contour>
      <point x="369" y="299" type="move"/>
      <point x="289" y="345" type="line"/>
      <point x="196" y="345" type="line"/>
      <point x="116" y="299" type="line"/>
      <point x="70" y="218" type="line"/>
      <point x="70" y="126" type="line"/>
      <point x="116" y="46" type="line"/>
      <point x="196" y="0" type="line"/>
      <point x="289" y="0" type="line"/>
      <point x="369" y="46" type="line"/>
    </contour>
  </outline>
</glyph>
<glyph name="e" format="1">
  <advance width="486"/>
  <unicode hex="0065"/>
  <outline>
    <contour>
      <point x="369" y="47" type="move"/>
      <point x="289" y="1" type="line"/>
      <point x="197" y="1" type="line"/>
      <point x="116" y="47" type="line"/>
      <point x="70" y="127" type="line"/>
      <point x="70" y="219" type="line"/>
      <point x="116" y="300" type="line"/>
      <point x="197" y="346" type="line"/>
      <point x="289" y="346" type="line"/>
      <point x="369" y="300" type="line"/>
      <point x="416" y="219" type="line"/>
      <point x="416" y="174" type="line"/>
      <point x="70" y="174" type="line"/>
    </contour>
  </outline>
</glyph>
<glyph name="f" format="1">
  <advance width="329"/>
  <unicode hex="0066"/>
  <outline>
    <contour>
      <point x="167" y="346" type="move"/>
      <point x="75" y="346" type="line"/>
    </contour>
    <contour>
      <point x="294" y="599" type="move"/>
      <point x="201" y="599" type="line"/>
      <point x="121" y="553" type="line"/>
      <point x="75" y="472" type="line"/>
      <point x="75" y="0" type="line"/>
    </contour>
  </outline>
</glyph>
<glyph name="g" format="1">
  <advance width="444"/>
  <unicode hex="0067"/>
  <outline>
    <contour>
      <point x="70" y="-153" type="move"/>
      <point x="150" y="-199" type="line"/>
      <point x="243" y="-199" type="line"/>
      <point x="323" y="-153" type="line"/>
      <point x="369" y="-73" type="line"/>
      <point x="369" y="346" type="line"/>
    </contour>
    <contour>
      <point x="369" y="47" type="move"/>
      <point x="289" y="1" type="line"/>
      <point x="196" y="1" type="line"/>
      <point x="116" y="47" type="line"/>
      <point x="70" y="127" type="line"/>
      <point x="70" y="219" type="line"/>
      <point x="116" y="300" type="line"/>
      <point x="196" y="346" type="line"/>
      <point x="289" y="346" type="line"/>
      <point x="369" y="300" type="line"/>
    </contour>
  </outline>
</glyph>
<glyph name="i" format="1">
  <advance width="150"/>
  <unicode hex="0069"/>
  <outline>
    <contour>
      <point x="74" y="474" type="move" smooth="yes"/>
    </contour>
    <contour>
      <point x="75" y="0" type="move"/>
      <point x="75" y="347" type="line"/>
    </contour>
  </outline>
</glyph>
<glyph name="j" format="1">
  <advance width="237"/>
  <unicode hex="006A"/>
  <outline>
    <contour>
      <point x="159" y="472" type="move" smooth="yes"/>
    </contour>
    <contour>
      <point x="35" y="-199" type="move"/>
      <point x="115" y="-153" type="line"/>
      <point x="162" y="-73" type="line"/>
      <point x="162" y="346" type="line"/>
    </contour>
  </outline>
</glyph>
<glyph name="k" format="1">
  <advance width="361"/>
  <unicode hex="006B"/>
  <outline>
    <contour>
      <point x="75" y="602" type="line"/>
      <point x="75" y="0" type="line"/>
    </contour>
    <contour>
      <point x="278" y="346" type="move"/>
      <point x="75" y="202" type="line"/>
      <point x="326" y="0" type="line"/>
    </contour>
  </outline>
</glyph>
<glyph name="m" format="1">
  <advance width="755"/>
  <unicode hex="006D"/>
  <outline>
    <contour>
      <point x="75" y="347" type="move"/>
      <point x="75" y="0" type="line"/>
    </contour>
    <contour>
      <point x="380" y="300" type="move"/>
      <point x="380" y="0" type="line"/>
    </contour>
    <contour>
      <point x="77" y="219" type="move"/>
      <point x="124" y="300" type="line"/>
      <point x="204" y="346" type="line"/>
      <point x="296" y="346" type="line"/>
      <point x="380" y="300" type="line"/>
      <point x="461" y="346" type="line"/>
      <point x="553" y="346" type="line"/>
      <point x="633" y="300" type="line"/>
      <point x="680" y="219" type="line"/>
      <point x="680" y="0" type="line"/>
    </contour>
  </outline>
</glyph>
<glyph name="n" format="1">
  <advance width="450"/>
  <unicode hex="006E"/>
  <outline>
    <contour>
      <point x="76" y="0" type="line"/>
      <point x="76" y="346" type="line"/>
    </contour>
    <contour>
      <point x="375" y="0" type="move"/>
      <point x="375" y="219" type="line"/>
      <point x="328" y="300" type="line"/>
      <point x="248" y="346" type="line"/>
      <point x="156" y="346" type="line"/>
      <point x="75" y="300" type="line"/>
    </contour>
  </outline>
</glyph>
<glyph name="o" format="1">
  <advance width="540"/>
  <unicode hex="006F"/>
  <outline>
    <contour>
      <point x="217" y="0" type="line"/>
      <point x="125" y="55" type="line"/>
      <point x="70" y="147" type="line"/>
      <point x="70" y="253" type="line"/>
      <point x="125" y="345" type="line"/>
      <point x="217" y="400" type="line"/>
      <point x="323" y="400" type="line"/>
      <point x="415" y="345" type="line"/>
      <point x="470" y="253" type="line"/>
      <point x="470" y="147" type="line"/>
      <point x="415" y="55" type="line"/>
      <point x="323" y="0" type="line"/>
    </contour>
  </outline>
</glyph>
<glyph name="p" format="1">
  <advance width="445"/>
  <unicode hex="0070"/>
  <outline>
    <contour>
      <point x="75" y="-259" type="line"/>
      <point x="75" y="341" type="line"/>
    </contour>
    <contour>
      <point x="75" y="47" type="move"/>
      <point x="156" y="1" type="line"/>
      <point x="248" y="1" type="line"/>
      <point x="328" y="47" type="line"/>
      <point x="375" y="127" type="line"/>
      <point x="375" y="219" type="line"/>
      <point x="328" y="300" type="line"/>
      <point x="248" y="346" type="line"/>
      <point x="156" y="346" type="line"/>
      <point x="75" y="300" type="line"/>
    </contour>
  </outline>
</glyph>
<glyph name="q" format="1">
  <advance width="445"/>
  <unicode hex="0071"/>
  <outline>
    <contour>
      <point x="370" y="-259" type="line"/>
      <point x="370" y="341" type="line"/>
    </contour>
    <contour>
      <point x="369" y="47" type="move"/>
      <point x="289" y="1" type="line"/>
      <point x="196" y="1" type="line"/>
      <point x="116" y="47" type="line"/>
      <point x="70" y="127" type="line"/>
      <point x="70" y="219" type="line"/>
      <point x="116" y="300" type="line"/>
      <point x="196" y="346" type="line"/>
      <point x="289" y="346" type="line"/>
      <point x="369" y="300" type="line"/>
    </contour>
  </outline>
</glyph>
<glyph name="r" format="1">
  <advance width="283"/>
  <unicode hex="0072"/>
  <outline>
    <contour>
      <point x="75" y="0" type="line"/>
      <point x="75" y="346" type="line"/>
    </contour>
    <contour>
      <point x="248" y="346" type="move"/>
      <point x="155" y="346" type="line"/>
      <point x="75" y="300" type="line"/>
    </contour>
  </outline>
</glyph>
<glyph name="s" format="1">
  <advance width="395"/>
  <unicode hex="0073"/>
  <outline>
    <contour>
      <point x="335" y="300" type="move"/>
      <point x="254" y="346" type="line"/>
      <point x="162" y="346" type="line"/>
      <point x="82" y="300" type="line"/>
      <point x="82" y="213" type="line"/>
      <point x="312" y="133" type="line"/>
      <point x="312" y="46" type="line"/>
      <point x="232" y="0" type="line"/>
      <point x="140" y="0" type="line"/>
      <point x="60" y="46" type="line"/>
    </contour>
  </outline>
</glyph>
<glyph name="t" format="1">
  <advance width="238"/>
  <unicode hex="0074"/>
  <outline>
    <contour>
      <point x="203" y="0" type="move"/>
      <point x="122" y="46" type="line"/>
      <point x="75" y="126" type="line"/>
      <point x="75" y="500" type="line"/>
    </contour>
    <contour>
      <point x="76" y="352" type="move"/>
      <point x="169" y="352" type="line"/>
    </contour>
  </outline>
</glyph>
<glyph name="u" format="1">
  <advance width="450"/>
  <unicode hex="0075"/>
  <outline>
    <contour>
      <point x="374" y="346" type="line"/>
      <point x="374" y="0" type="line"/>
    </contour>
    <contour>
      <point x="75" y="346" type="move"/>
      <point x="75" y="126" type="line"/>
      <point x="122" y="46" type="line"/>
      <point x="202" y="0" type="line"/>
      <point x="294" y="0" type="line"/>
      <point x="375" y="46" type="line"/>
    </contour>
  </outline>
</glyph>
<glyph name="v" format="1">
  <advance width="369"/>
  <unicode hex="0076"/>
  <outline>
    <contour>
      <point x="35" y="347" type="move"/>
      <point x="184" y="0" type="line"/>
      <point x="334" y="347" type="line"/>
    </contour>
  </outline>
</glyph>
<glyph name="w" format="1">
  <advance width="666"/>
  <unicode hex="0077"/>
  <outline>
    <contour>
      <point x="631" y="347" type="move"/>
      <point x="481" y="0" type="line"/>
      <point x="332" y="347" type="line"/>
      <point x="184" y="0" type="line"/>
      <point x="35" y="347" type="line"/>
    </contour>
  </outline>
</glyph>
<glyph name="y" format="1">
  <advance width="388"/>
  <unicode hex="0079"/>
  <outline>
    <contour>
      <point x="35" y="-199" type="move"/>
      <point x="115" y="-152" type="line"/>
      <point x="353" y="349" type="line"/>
    </contour>
    <contour>
      <point x="189" y="1" type="move"/>
      <point x="40" y="348" type="line"/>
    </contour>
  </outline>
</glyph>
<glyph name="z" format="1">
  <advance width="443"/>
  <unicode hex="007A"/>
  <outline>
    <contour>
      <point x="70" y="345" type="move"/>
      <point x="373" y="345" type="line"/>
      <point x="70" y="0" type="line"/>
      <point x="373" y="0" type="line"/>
    </contour>
  </outline>
</glyph>
<glyph name="braceleft" format="1">
  <advance width="350"/>
  <unicode hex="007B"/>
  <outline>
    <contour>
      <point x="280" y="598" type="move"/>
      <point x="199" y="552" type="line"/>
      <point x="153" y="471" type="line"/>
      <point x="152" y="354" type="line"/>
      <point x="70" y="305" type="line"/>
      <point x="152" y="260" type="line"/>
      <point x="153" y="126" type="line"/>
      <point x="199" y="46" type="line"/>
      <point x="280" y="0" type="line"/>
    </contour>
  </outline>
</glyph>
<glyph name="braceright" format="1">
  <advance width="350"/>
  <unicode hex="007D"/>
  <outline>
    <contour>
      <point x="70" y="598" type="move"/>
      <point x="150" y="552" type="line"/>
      <point x="197" y="471" type="line"/>
      <point x="197" y="354" type="line"/>
      <point x="280" y="305" type="line"/>
      <point x="197" y="260" type="line"/>
      <point x="197" y="126" type="line"/>
      <point x="150" y="46" type="line"/>
      <point x="70" y="0" type="line"/>
    </contour>
  </outline>
</glyph>
<glyph name="asciitilde" format="1">
  <advance width="415"/>
  <unicode hex="007E"/>
  <outline>
    <contour>
      <point x="340" y="295" type="move"/>
      <point x="247" y="295" type="line"/>
      <point x="167" y="346" type="line"/>
      <point x="75" y="346" type="line"/>
    </contour>
  </outline>
</glyph>
<glyph name="dieresis" format="1">
  <advance width="449"/>
  <unicode hex="00A8"/>
  <outline>
    <contour>
      <point x="329" y="471" type="move" smooth="yes"/>
    </contour>
    <contour>
      <point x="147" y="471" type="move" smooth="yes"/>
    </contour>
  </outline>
</glyph>
<glyph name="guillemotleft" format="1">
  <advance width="451"/>
  <unicode hex="00AB"/>
  <outline>
    <contour>
      <point x="381" y="0" type="move"/>
      <point x="216" y="172" type="line"/>
      <point x="381" y="345" type="line"/>
    </contour>
    <contour>
      <point x="235" y="0" type="move"/>
      <point x="70" y="172" type="line"/>
      <point x="235" y="345" type="line"/>
    </contour>
  </outline>
</glyph>
<glyph name="guillemotright" format="1">
  <advance width="451"/>
  <unicode hex="00BB"/>
  <outline>
    <contour>
      <point x="70" y="0" type="move"/>
      <point x="235" y="172" type="line"/>
      <point x="70" y="345" type="line"/>
    </contour>
    <contour>
      <point x="216" y="0" type="move"/>
      <point x="381" y="172" type="line"/>
      <point x="216" y="345" type="line"/>
    </contour>
  </outline>
</glyph>
<glyph name="Agrave" format="1">
  <advance width="506"/>
  <unicode hex="00C0"/>
  <outline>
    <contour>
      <point x="35" y="0" type="move"/>
      <point x="253" y="599" type="line"/>
      <point x="471" y="0" type="line"/>
    </contour>
    <contour>
      <point x="386" y="233" type="move"/>
      <point x="120" y="233" type="line"/>
    </contour>
    <contour>
      <point x="211" y="802" type="move"/>
      <point x="257" y="722" type="line"/>
      <point x="337" y="676" type="line"/>
    </contour>
  </outline>
</glyph>
<glyph name="Atilde" format="1">
  <advance width="506"/>
  <unicode hex="00C3"/>
  <outline>
    <contour>
      <point x="35" y="0" type="move"/>
      <point x="253" y="599" type="line"/>
      <point x="471" y="0" type="line"/>
    </contour>
    <contour>
      <point x="386" y="233" type="move"/>
      <point x="120" y="233" type="line"/>
    </contour>
    <contour>
      <point x="385" y="749" type="move"/>
      <point x="292" y="749" type="line"/>
      <point x="213" y="801" type="line"/>
      <point x="120" y="801" type="line"/>
    </contour>
  </outline>
</glyph>
<glyph name="Adieresis" format="1">
  <advance width="507"/>
  <unicode hex="00C4"/>
  <outline>
    <contour>
      <point x="338" y="762" type="move" smooth="yes"/>
    </contour>
    <contour>
      <point x="156" y="762" type="move" smooth="yes"/>
    </contour>
    <contour>
      <point x="35" y="0" type="move"/>
      <point x="253" y="599" type="line"/>
      <point x="472" y="0" type="line"/>
    </contour>
    <contour>
      <point x="387" y="233" type="move"/>
      <point x="120" y="233" type="line"/>
    </contour>
  </outline>
</glyph>
<glyph name="AE" format="1">
  <advance width="709"/>
  <unicode hex="00C6"/>
  <outline>
    <contour>
      <point x="639" y="599" type="move"/>
      <point x="253" y="599" type="line"/>
      <point x="253" y="0" type="line"/>
      <point x="639" y="0" type="line"/>
    </contour>
    <contour>
      <point x="253" y="300" type="move"/>
      <point x="520" y="300" type="line"/>
    </contour>
    <contour>
      <point x="35" y="0" type="move"/>
      <point x="253" y="599" type="line"/>
    </contour>
    <contour>
      <point x="253" y="233" type="move"/>
      <point x="120" y="233" type="line"/>
    </contour>
  </outline>
</glyph>
<glyph name="Ecircumflex" format="1">
  <advance width="530"/>
  <unicode hex="00CA"/>
  <outline>
    <contour>
      <point x="178" y="758" type="move"/>
      <point x="258" y="805" type="line"/>
      <point x="338" y="758" type="line"/>
    </contour>
    <contour>
      <point x="460" y="600" type="move"/>
      <point x="75" y="600" type="line"/>
      <point x="75" y="0" type="line"/>
      <point x="460" y="0" type="line"/>
    </contour>
    <contour>
      <point x="75" y="301" type="move"/>
      <point x="341" y="301" type="line"/>
    </contour>
  </outline>
</glyph>
<glyph name="Edieresis" format="1">
  <advance width="530"/>
  <unicode hex="00CB"/>
  <outline>
    <contour>
      <point x="341" y="761" type="move" smooth="yes"/>
    </contour>
    <contour>
      <point x="159" y="761" type="move" smooth="yes"/>
    </contour>
    <contour>
      <point x="460" y="599" type="move"/>
      <point x="75" y="599" type="line"/>
      <point x="75" y="1" type="line"/>
      <point x="460" y="1" type="line"/>
    </contour>
    <contour>
      <point x="75" y="302" type="move"/>
      <point x="341" y="302" type="line"/>
    </contour>
  </outline>
</glyph>
<glyph name="Idieresis" format="1">
  <advance width="150"/>
  <unicode hex="00CF"/>
  <outline>
    <contour>
      <point x="75" y="0" type="move"/>
      <point x="75" y="601" type="line"/>
    </contour>
    <contour>
      <point x="166" y="760" type="move" smooth="yes"/>
    </contour>
    <contour>
      <point x="-16" y="760" type="move" smooth="yes"/>
    </contour>
  </outline>
</glyph>
<glyph name="Otilde" format="1">
  <advance width="739"/>
  <unicode hex="00D5"/>
  <outline>
    <contour>
      <point x="507" y="749" type="move"/>
      <point x="414" y="749" type="line"/>
      <point x="335" y="801" type="line"/>
      <point x="242" y="801" type="line"/>
    </contour>
    <contour>
      <point x="450" y="0" type="line"/>
      <point x="589" y="80" type="line"/>
      <point x="669" y="219" type="line"/>
      <point x="669" y="380" type="line"/>
      <point x="589" y="519" type="line"/>
      <point x="450" y="599" type="line"/>
      <point x="289" y="599" type="line"/>
      <point x="150" y="519" type="line"/>
      <point x="70" y="380" type="line"/>
      <point x="70" y="219" type="line"/>
      <point x="150" y="80" type="line"/>
      <point x="289" y="0" type="line"/>
    </contour>
  </outline>
</glyph>
<glyph name="Uacute" format="1">
  <advance width="583"/>
  <unicode hex="00DA"/>
  <outline>
    <contour>
      <point x="340" y="803" type="move"/>
      <point x="294" y="723" type="line"/>
      <point x="214" y="677" type="line"/>
    </contour>
    <contour>
      <point x="508" y="598" type="move"/>
      <point x="508" y="81" type="line"/>
      <point x="375" y="0" type="line"/>
      <point x="214" y="0" type="line"/>
      <point x="75" y="81" type="line"/>
      <point x="75" y="596" type="line"/>
    </contour>
    <contour>
      <point x="69" y="81" type="move" smooth="yes"/>
    </contour>
  </outline>
</glyph>
<glyph name="Ucircumflex" format="1">
  <advance width="583"/>
  <unicode hex="00DB"/>
  <outline>
    <contour>
      <point x="508" y="598" type="move"/>
      <point x="508" y="81" type="line"/>
      <point x="375" y="0" type="line"/>
      <point x="214" y="0" type="line"/>
      <point x="75" y="81" type="line"/>
      <point x="75" y="596" type="line"/>
    </contour>
    <contour>
      <point x="69" y="81" type="move" smooth="yes"/>
    </contour>
    <contour>
      <point x="212" y="757" type="move"/>
      <point x="292" y="804" type="line"/>
      <point x="373" y="757" type="line"/>
    </contour>
  </outline>
</glyph>
<glyph name="Udieresis" format="1">
  <advance width="583"/>
  <unicode hex="00DC"/>
  <outline>
    <contour>
      <point x="384" y="759" type="move" smooth="yes"/>
    </contour>
    <contour>
      <point x="202" y="759" type="move" smooth="yes"/>
    </contour>
    <contour>
      <point x="508" y="598" type="move"/>
      <point x="508" y="81" type="line"/>
      <point x="375" y="0" type="line"/>
      <point x="214" y="0" type="line"/>
      <point x="75" y="81" type="line"/>
      <point x="75" y="596" type="line"/>
    </contour>
    <contour>
      <point x="69" y="81" type="move" smooth="yes"/>
    </contour>
  </outline>
</glyph>
<glyph name="agrave" format="1">
  <advance width="444"/>
  <unicode hex="00E0"/>
  <outline>
    <contour>
      <point x="369" y="-1" type="line"/>
      <point x="369" y="345" type="line"/>
    </contour>
    <contour>
      <point x="369" y="47" type="move"/>
      <point x="288" y="1" type="line"/>
      <point x="196" y="1" type="line"/>
      <point x="116" y="47" type="line"/>
      <point x="70" y="127" type="line"/>
      <point x="70" y="219" type="line"/>
      <point x="116" y="300" type="line"/>
      <point x="196" y="346" type="line"/>
      <point x="288" y="346" type="line"/>
      <point x="369" y="300" type="line"/>
    </contour>
    <contour>
      <point x="159" y="598" type="move"/>
      <point x="206" y="518" type="line"/>
      <point x="286" y="471" type="line"/>
    </contour>
  </outline>
</glyph>
<glyph name="ccedilla" format="1">
  <advance width="440"/>
  <unicode hex="00E7"/>
  <outline>
    <contour>
      <point x="370" y="47" type="move"/>
      <point x="289" y="1" type="line"/>
      <point x="197" y="1" type="line"/>
      <point x="117" y="47" type="line"/>
      <point x="70" y="127" type="line"/>
      <point x="70" y="219" type="line"/>
      <point x="117" y="300" type="line"/>
      <point x="197" y="346" type="line"/>
      <point x="289" y="346" type="line"/>
      <point x="370" y="300" type="line"/>
    </contour>
    <contour>
      <point x="243" y="-2" type="move"/>
      <point x="243" y="-95" type="line"/>
      <point x="197" y="-175" type="line"/>
      <point x="117" y="-221" type="line"/>
    </contour>
  </outline>
</glyph>
<glyph name="eacute" format="1">
  <advance width="486"/>
  <unicode hex="00E9"/>
  <outline>
    <contour>
      <point x="369" y="47" type="move"/>
      <point x="289" y="1" type="line"/>
      <point x="197" y="1" type="line"/>
      <point x="116" y="47" type="line"/>
      <point x="70" y="127" type="line"/>
      <point x="70" y="219" type="line"/>
      <point x="116" y="300" type="line"/>
      <point x="197" y="346" type="line"/>
      <point x="289" y="346" type="line"/>
      <point x="369" y="300" type="line"/>
      <point x="416" y="219" type="line"/>
      <point x="416" y="174" type="line"/>
      <point x="70" y="174" type="line"/>
    </contour>
    <contour>
      <point x="321" y="597" type="move"/>
      <point x="275" y="517" type="line"/>
      <point x="194" y="470" type="line"/>
    </contour>
  </outline>
</glyph>
<glyph name="idieresis" format="1">
  <advance width="150"/>
  <unicode hex="00EF"/>
  <outline>
    <contour>
      <point x="75" y="0" type="move"/>
      <point x="75" y="347" type="line"/>
    </contour>
    <contour>
      <point x="166" y="471" type="move" smooth="yes"/>
    </contour>
    <contour>
      <point x="-16" y="471" type="move" smooth="yes"/>
    </contour>
  </outline>
</glyph>
<glyph name="otilde" format="1">
  <advance width="486"/>
  <unicode hex="00F5"/>
  <outline>
    <contour>
      <point x="373" y="549" type="move"/>
      <point x="281" y="549" type="line"/>
      <point x="201" y="600" type="line"/>
      <point x="108" y="600" type="line"/>
    </contour>
    <contour>
      <point x="289" y="0" type="line"/>
      <point x="197" y="0" type="line"/>
      <point x="116" y="47" type="line"/>
      <point x="70" y="127" type="line"/>
      <point x="70" y="219" type="line"/>
      <point x="116" y="300" type="line"/>
      <point x="197" y="346" type="line"/>
      <point x="289" y="346" type="line"/>
      <point x="369" y="300" type="line"/>
      <point x="416" y="219" type="line"/>
      <point x="416" y="127" type="line"/>
      <point x="369" y="47" type="line"/>
    </contour>
  </outline>
</glyph>
<glyph name="divide" format="1">
  <advance width="448"/>
  <unicode hex="00F7"/>
  <outline>
    <contour>
      <point x="373" y="179" type="line"/>
      <point x="75" y="179" type="line"/>
    </contour>
    <contour>
      <point x="223" y="346" type="move" smooth="yes"/>
    </contour>
    <contour>
      <point x="223" y="0" type="move" smooth="yes"/>
    </contour>
  </outline>
</glyph>
<glyph name="ugrave" format="1">
  <advance width="450"/>
  <unicode hex="00F9"/>
  <outline>
    <contour>
      <point x="167" y="598" type="move"/>
      <point x="214" y="518" type="line"/>
      <point x="294" y="471" type="line"/>
    </contour>
    <contour>
      <point x="374" y="346" type="line"/>
      <point x="374" y="0" type="line"/>
    </contour>
    <contour>
      <point x="75" y="346" type="move"/>
      <point x="75" y="126" type="line"/>
      <point x="122" y="46" type="line"/>
      <point x="202" y="0" type="line"/>
      <point x="294" y="0" type="line"/>
      <point x="375" y="46" type="line"/>
    </contour>
  </outline>
</glyph>
<glyph name="uacute" format="1">
  <advance width="450"/>
  <unicode hex="00FA"/>
  <outline>
    <contour>
      <point x="294" y="596" type="move"/>
      <point x="248" y="516" type="line"/>
      <point x="167" y="469" type="line"/>
    </contour>
    <contour>
      <point x="374" y="346" type="line"/>
      <point x="374" y="0" type="line"/>
    </contour>
    <contour>
      <point x="75" y="346" type="move"/>
      <point x="75" y="126" type="line"/>
      <point x="122" y="46" type="line"/>
      <point x="202" y="0" type="line"/>
      <point x="294" y="0" type="line"/>
      <point x="375" y="46" type="line"/>
    </contour>
  </outline>
</glyph>
<glyph name="ucircumflex" format="1">
  <advance width="450"/>
  <unicode hex="00FB"/>
  <outline>
    <contour>
      <point x="170" y="471" type="move"/>
      <point x="250" y="518" type="line"/>
      <point x="330" y="471" type="line"/>
    </contour>
    <contour>
      <point x="374" y="346" type="line"/>
      <point x="374" y="0" type="line"/>
    </contour>
    <contour>
      <point x="75" y="346" type="move"/>
      <point x="75" y="126" type="line"/>
      <point x="122" y="46" type="line"/>
      <point x="202" y="0" type="line"/>
      <point x="294" y="0" type="line"/>
      <point x="375" y="46" type="line"/>
    </contour>
  </outline>
</glyph>
<glyph name="udieresis" format="1">
  <advance width="449"/>
  <unicode hex="00FC"/>
  <outline>
    <contour>
      <point x="330" y="470" type="move" smooth="yes"/>
    </contour>
    <contour>
      <point x="148" y="470" type="move" smooth="yes"/>
    </contour>
    <contour>
      <point x="374" y="346" type="line"/>
      <point x="374" y="0" type="line"/>
    </contour>
    <contour>
      <point x="75" y="346" type="move"/>
      <point x="75" y="126" type="line"/>
      <point x="122" y="46" type="line"/>
      <point x="202" y="0" type="line"/>
      <point x="294" y="0" type="line"/>
      <point x="375" y="46" type="line"/>
    </contour>
  </outline>
</glyph>
<glyph name="Ydieresis" format="1">
  <advance width="455"/>
  <unicode hex="0178"/>
  <outline>
    <contour>
      <point x="226" y="2" type="move"/>
      <point x="226" y="300" type="line"/>
    </contour>
    <contour>
      <point x="420" y="601" type="move"/>
      <point x="226" y="300" type="line"/>
      <point x="35" y="600" type="line"/>
    </contour>
    <contour>
      <point x="320" y="762" type="move" smooth="yes"/>
    </contour>
    <contour>
      <point x="138" y="762" type="move" smooth="yes"/>
    </contour>
  </outline>
</glyph>
<glyph name="endash" format="1">
  <advance width="363"/>
  <unicode hex="2013"/>
  <outline>
    <contour>
      <point x="293" y="158" type="move"/>
      <point x="70" y="158" type="line"/>
    </contour>
  </outline>
</glyph>
<glyph name="quotedblleft" format="1">
  <advance width="332"/>
  <unicode hex="201C"/>
  <outline>
    <contour>
      <point x="262" y="519" type="line"/>
      <point x="216" y="599" type="line"/>
    </contour>
    <contour>
      <point x="116" y="519" type="line"/>
      <point x="70" y="599" type="line"/>
    </contour>
  </outline>
</glyph>
<glyph name="quotedblbase" format="1">
  <advance width="332"/>
  <unicode hex="201E"/>
  <outline>
    <contour>
      <point x="262" y="0" type="line"/>
      <point x="216" y="-80" type="line"/>
    </contour>
    <contour>
      <point x="116" y="0" type="line"/>
      <point x="70" y="-80" type="line"/>
    </contour>
  </outline>
</glyph>
<glyph name="ellipsis" format="1">
  <advance width="490"/>
  <unicode hex="2026"/>
  <outline>
    <contour>
      <point x="418" y="0" type="move" smooth="yes"/>
    </contour>
    <contour>
      <point x="242" y="0" type="move" smooth="yes"/>
    </contour>
    <contour>
      <point x="65" y="0" type="move" smooth="yes"/>
    </contour>
  </outline>
</glyph>
<glyph name="fraction" format="1">
  <advance width="382"/>
  <unicode hex="2044"/>
  <outline>
    <contour>
      <point x="75" y="754" type="move"/>
      <point x="306" y="800" type="line"/>
    </contour>
  </outline>
</glyph>
<glyph name="Euro" format="1">
  <advance width="817"/>
  <unicode hex="20AC"/>
  <outline>
    <contour>
      <point x="71" y="380" type="line"/>
      <point x="464" y="381" type="line"/>
    </contour>
    <contour>
      <point x="70" y="220" type="line"/>
      <point x="463" y="221" type="line"/>
    </contour>
    <contour>
      <point x="747" y="520" type="move"/>
      <point x="607" y="600" type="line"/>
      <point x="446" y="600" type="line"/>
      <point x="307" y="520" type="line"/>
      <point x="226" y="380" type="line"/>
      <point x="226" y="219" type="line"/>
      <point x="307" y="80" type="line"/>
      <point x="446" y="0" type="line"/>
      <point x="607" y="0" type="line"/>
      <point x="747" y="80" type="line"/>
    </contour>
  </outline>
</glyph>
<glyph name="lozenge" format="1">
  <advance width="469"/>
  <unicode hex="25CA"/>
  <outline>
    <contour>
      <point x="235" y="345" type="line"/>
      <point x="399" y="181" type="line"/>
      <point x="235" y="0" type="line"/>
      <point x="70" y="181" type="line"/>
    </contour>
  </outline>
</glyph>
<glyph name="uniFB03" format="1">
  <advance width="588"/>
  <unicode hex="FB03"/>
  <outline>
    <contour>
      <point x="75" y="346" type="move"/>
      <point x="294" y="346" type="line"/>
      <point x="513" y="346" type="line"/>
      <point x="513" y="0" type="line"/>
    </contour>
    <contour>
      <point x="513" y="599" type="move"/>
      <point x="420" y="599" type="line"/>
      <point x="340" y="553" type="line"/>
      <point x="294" y="472" type="line"/>
      <point x="294" y="0" type="line"/>
    </contour>
    <contour>
      <point x="294" y="599" type="move"/>
      <point x="201" y="599" type="line"/>
      <point x="121" y="553" type="line"/>
      <point x="75" y="472" type="line"/>
      <point x="75" y="0" type="line"/>
    </contour>
  </outline>
</glyph>
<glyph name="uniFB04" format="1">
  <advance width="588"/>
  <unicode hex="FB04"/>
  <outline>
    <contour>
      <point x="386" y="346" type="move"/>
      <point x="294" y="346" type="line"/>
      <point x="75" y="346" type="line"/>
    </contour>
    <contour>
      <point x="294" y="0" type="move"/>
      <point x="294" y="472" type="line"/>
      <point x="340" y="553" type="line"/>
      <point x="420" y="599" type="line"/>
      <point x="513" y="599" type="line"/>
      <point x="513" y="0" type="line"/>
    </contour>
    <contour>
      <point x="294" y="599" type="move"/>
      <point x="201" y="599" type="line"/>
      <point x="121" y="553" type="line"/>
      <point x="75" y="472" type="line"/>
      <point x="75" y="0" type="line"/>
    </contour>
  </outline>
</glyph>
